Coordinates
version=1
nRows=5
nColumns=40
inDegrees=yes

Units are S.I. units (second, meters, Newtons, ...)
Angles are in degrees.

endheader
time	pelvis_tilt	pelvis_list	pelvis_rotation	pelvis_tx	pelvis_ty	pelvis_tz	hip_flexion_r	hip_adduction_r	hip_rotation_r	knee_angle_r	knee_angle_r_beta	ankle_angle_r	subtalar_angle_r	mtp_angle_r	hip_flexion_l	hip_adduction_l	hip_rotation_l	knee_angle_l	knee_angle_l_beta	ankle_angle_l	subtalar_angle_l	mtp_angle_l	lumbar_extension	lumbar_bending	lumbar_rotation	arm_flex_r	arm_add_r	arm_rot_r	elbow_flex_r	pro_sup_r	wrist_flex_r	wrist_dev_r	arm_flex_l	arm_add_l	arm_rot_l	elbow_flex_l	pro_sup_l	wrist_flex_l	wrist_dev_l
     30.81000000	     -2.95564133	     -5.39636707	      3.26006195	      0.92479221	      0.92913121	      0.49960038	     12.55577606	      3.82439093	    -14.42404908	     19.12099553	     19.12099553	     11.42725109	     -1.64407955	     -2.78085318	     28.95863486	    -11.72151874	      2.17604759	     61.47483275	     61.47483275	      9.29569557	    -17.03211201	      9.59222908	     -9.73119037	      6.22191736	      1.52561148	     13.15634938	    -19.53308471	     -1.46814371	     65.19517443	     45.48002858	      0.00000000	      0.00000000	     -0.92099263	     -8.34417901	     -9.86078676	     33.97849606	     45.40925634	      0.00000000	      0.00000000
     30.82278571	     -3.20208034	     -5.11755168	      3.59555681	      0.92287358	      0.92962193	      0.49955970	     12.10182659	      3.59114516	    -14.62436273	     18.45168961	     18.45168961	     11.51810580	     -1.48821071	     -2.82372083	     29.96235956	    -11.16260026	      2.14007123	     58.57991072	     58.57991072	      9.50223656	    -17.51527097	      9.61538395	     -9.62907339	      5.99629019	      1.64699347	     14.50854565	    -19.47576836	     -1.56583371	     66.08729887	     45.45773520	      0.00000000	      0.00000000	     -1.19609041	     -8.17919622	     -9.73215212	     33.72362498	     45.40133675	      0.00000000	      0.00000000
     30.83557143	     -3.34475234	     -4.97178058	      3.90747085	      0.92105321	      0.93012108	      0.49962636	     11.53309601	      3.52814944	    -14.81334760	     17.76335493	     17.76335493	     11.58723994	     -1.31086812	     -2.90854309	     30.65470382	    -10.77662839	      2.08237637	     55.38023479	     55.38023479	      9.72690577	    -17.70707441	      9.63015726	     -9.64740972	      5.89272103	      1.80237842	     15.87733851	    -19.48068773	     -1.63603554	     67.01308470	     45.43391401	      0.00000000	      0.00000000	     -1.53443003	     -7.99711698	     -9.60331846	     33.53453151	     45.39023669	      0.00000000	      0.00000000
     30.84835714	     -3.54377546	     -4.79113531	      4.16730079	      0.91923333	      0.93046859	      0.49958770	     11.07953327	      3.41190544	    -14.94810944	     17.16712425	     17.16712425	     11.65660324	     -1.21215066	     -2.96345658	     31.19937774	    -10.35237015	      1.91292347	     51.91008590	     51.91008590	      9.93752431	    -17.70979602	      9.86986734	     -9.61328955	      5.81741205	      2.06812436	     17.15651973	    -19.52624948	     -1.70166610	     67.79195418	     45.41514065	      0.00000000	      0.00000000	     -1.85366137	     -7.85353878	     -9.50984922	     33.40329753	     45.37917790	      0.00000000	      0.00000000
     30.86114286	     -3.69210643	     -4.67068180	      4.44633618	      0.91747428	      0.93076449	      0.49948534	     10.57074703	      3.35763633	    -15.14045532	     16.56516412	     16.56516412	     11.73377843	     -1.05543620	     -3.07259672	     31.54700366	     -9.92399802	      1.86658948	     48.24994342	     48.24994342	     10.12146281	    -17.53196770	     10.13583732	     -9.62656061	      5.78418539	      2.23959324	     18.50363694	    -19.54804698	     -1.74783004	     68.65264584	     45.39334821	      0.00000000	      0.00000000	     -2.17560343	     -7.68524670	     -9.39456859	     33.26487571	     45.36506814	      0.00000000	      0.00000000
